<?xml version="1.0" encoding="utf-8"?>
<!-- Generator: Adobe Illustrator 21.1.0, SVG Export Plug-In . SVG Version: 6.00 Build 0)  -->
<svg version="1.1" id="Layer_1" xmlns="http://www.w3.org/2000/svg" xmlns:xlink="http://www.w3.org/1999/xlink" x="0px" y="0px"
	 width="50.9px" height="35.7px" viewBox="0 0 50.9 35.7" enable-background="new 0 0 50.9 35.7" xml:space="preserve">
<path fill="currentColor" d="M50.7,14l-9.5,19.4c-0.6,1.2-2.2,2.2-3.5,2.2H2.3c-1.4,0-2-1-1.4-2.2L10.5,14c0.6-1.2,2.2-2.2,3.5-2.2h35.3
	C50.6,11.8,51.3,12.8,50.7,14z M8.3,12.9L0,29.8V7.7c0-1.4,1.1-2.5,2.5-2.5h10.8V3.7c0-1,0.4-1.9,1.1-2.6C15.1,0.4,16,0,17,0h6.3
	c2,0,3.7,1.7,3.7,3.7v1.4h10.8c1.3,0,2.5,1.1,2.5,2.5v1.7H14C11.7,9.3,9.3,10.9,8.3,12.9z M15.7,5.2h8.8V3.7c0-0.7-0.5-1.2-1.2-1.2
	H17c-0.3,0-0.6,0.1-0.9,0.4c-0.2,0.2-0.4,0.6-0.4,0.9V5.2z"/>
</svg>
