<?xml version="1.0" encoding="utf-8"?>
<!-- Generator: Adobe Illustrator 21.1.0, SVG Export Plug-In . SVG Version: 6.00 Build 0)  -->
<svg version="1.1" id="Layer_1" xmlns="http://www.w3.org/2000/svg" xmlns:xlink="http://www.w3.org/1999/xlink" x="0px" y="0px"
	 width="43.6px" height="43.6px" viewBox="0 0 43.6 43.6" enable-background="new 0 0 43.6 43.6" xml:space="preserve">
<path fill="currentColor" d="M43.6,21.8c0-1.6-1.2-3.4-2.6-3.9s-2.8-1.8-3.2-2.7c-0.4-1-0.3-2.9,0.4-4.2c0.7-1.4,0.2-3.4-0.9-4.6C36,5.2,34,4.8,32.6,5.5
	c-1.4,0.7-3.2,0.8-4.2,0.3c-1-0.4-2.2-1.8-2.7-3.2C25.1,1.2,23.4,0,21.8,0c-1.6,0-3.3,1.2-3.9,2.6s-1.8,2.8-2.7,3.2
	c-1,0.4-2.9,0.3-4.2-0.3C9.6,4.8,7.5,5.2,6.4,6.4C5.2,7.5,4.8,9.6,5.5,11s0.8,3.2,0.3,4.2c-0.4,1-1.8,2.2-3.2,2.7S0,20.2,0,21.8
	c0,1.6,1.2,3.4,2.6,3.9c1.4,0.5,2.8,1.8,3.2,2.7c0.4,1,0.3,2.8-0.4,4.2S5.2,36,6.4,37.2c1.1,1.1,3.2,1.5,4.6,0.9
	c1.4-0.6,3.2-0.8,4.2-0.3s2.2,1.8,2.7,3.2c0.5,1.4,2.2,2.6,3.9,2.6c1.6,0,3.4-1.2,3.9-2.6c0.5-1.4,1.8-2.8,2.7-3.2
	c1-0.4,2.9-0.3,4.2,0.3c1.4,0.7,3.4,0.3,4.6-0.9c1.1-1.1,1.5-3.2,0.9-4.6c-0.7-1.4-0.8-3.2-0.4-4.2c0.4-1,1.8-2.2,3.2-2.7
	C42.4,25.1,43.6,23.4,43.6,21.8z M21.8,29.8c-4.4,0-8-3.6-8-8c0-4.4,3.6-8,8-8c4.4,0,8,3.6,8,8C29.8,26.2,26.2,29.8,21.8,29.8z"/>
</svg>
