<?xml version="1.0" encoding="utf-8"?>
<!-- Generator: Adobe Illustrator 21.1.0, SVG Export Plug-In . SVG Version: 6.00 Build 0)  -->
<svg version="1.1" id="Layer_1" xmlns="http://www.w3.org/2000/svg" xmlns:xlink="http://www.w3.org/1999/xlink" x="0px" y="0px"
	 width="47.6px" height="47.6px" viewBox="0 0 47.6 47.6" enable-background="new 0 0 47.6 47.6" xml:space="preserve">
<path fill="currentColor" d="M47.1,18.9L32.9,33.1L0,47.6l14.5-32.9L28.8,0.5c0.6-0.6,1.6-0.6,2.2,0c0.6,0.6,0.6,1.6,0,2.2L17.1,16.6L8.6,36l3,3L31,30.4
	l13.9-13.8c0.6-0.6,1.6-0.6,2.2,0C47.8,17.2,47.8,18.2,47.1,18.9z M29.2,27.6c-0.3,0.3-0.7,0.5-1.1,0.5c-0.4,0-0.8-0.2-1.1-0.5
	c-0.6-0.6-0.6-1.6,0-2.2L40.3,12c0.6-0.6,1.6-0.6,2.2,0c0.6,0.6,0.6,1.6,0,2.2L29.2,27.6z M25.7,24.1c-0.3,0.3-0.7,0.5-1.1,0.5
	s-0.8-0.2-1.1-0.5c-0.6-0.6-0.6-1.6,0-2.3L36.8,8.5c0.6-0.6,1.6-0.6,2.2,0c0.6,0.6,0.6,1.6,0,2.2L25.7,24.1z M22.2,20.6
	c-0.3,0.3-0.7,0.5-1.1,0.5s-0.8-0.2-1.1-0.5c-0.6-0.6-0.6-1.6,0-2.2L33.3,5.1c0.6-0.6,1.6-0.6,2.2,0c0.6,0.6,0.6,1.6,0,2.2
	L22.2,20.6z"/>
</svg>
